<svg width="20" height="20" viewBox="0 0 20 20" fill="none" xmlns="http://www.w3.org/2000/svg">
<g clip-path="url(#clip0_16030_897)">
<path d="M10.0003 14.1665C8.60535 14.1665 7.39201 15.2207 6.76535 16.7757C6.46535 17.519 6.89535 18.3332 7.46535 18.3332H12.5345C13.1053 18.3332 13.5345 17.519 13.2353 16.7757C12.6087 15.2207 11.3953 14.1665 10.0003 14.1665Z" stroke="white" stroke-width="2" stroke-linecap="round"/>
<path d="M15.4171 4.1665H16.4187C17.4196 4.1665 17.9196 4.1665 18.1812 4.48067C18.4421 4.79567 18.3337 5.26734 18.1162 6.2115L17.7912 7.62817C17.3004 9.7565 15.5087 11.3398 13.3337 11.6665M4.58374 4.1665H3.58208C2.58124 4.1665 2.08041 4.1665 1.81958 4.48067C1.55874 4.79567 1.66708 5.26734 1.88458 6.2115L2.20958 7.62817C2.70041 9.7565 4.49208 11.3398 6.66708 11.6665" stroke="white" stroke-width="2" stroke-linecap="round" stroke-linejoin="round"/>
<path d="M10.0013 14.1665C12.5179 14.1665 14.6388 10.2815 15.2763 4.9915C15.4521 3.52984 15.5404 2.79817 15.0738 2.23234C14.6071 1.6665 13.8529 1.6665 12.3454 1.6665H7.65709C6.14876 1.6665 5.39542 1.6665 4.92876 2.23234C4.46209 2.79817 4.55126 3.52984 4.72626 4.99234C5.36376 10.2815 7.48459 14.1665 10.0013 14.1665Z" stroke="white" stroke-width="2" stroke-linecap="round"/>
</g>
<defs>
<clipPath id="clip0_16030_897">
<rect width="20" height="20" fill="white"/>
</clipPath>
</defs>
</svg>
