<svg width="136" height="29" viewBox="0 0 136 29" fill="none" xmlns="http://www.w3.org/2000/svg">
<circle cx="12" cy="14.5" r="12" fill="#FF82E0"/>
<circle cx="12" cy="14.5" r="10" fill="#FD67D6"/>
<circle cx="12" cy="14.5" r="8" fill="#FCE800"/>
<path d="M11.2012 18.5V10.5H12.7929V18.5H11.2012ZM8 15.2929V13.7012H16V15.2929H8Z" fill="#111111"/>
<path d="M33.4062 6.08984H40.2852C43.7539 6.08984 46.1445 8.39844 46.1445 11.8789C46.1445 15.3477 43.6719 17.668 40.1094 17.668H36.9453V23H33.4062V6.08984ZM36.9453 8.89062V14.9023H39.3359C41.3633 14.9023 42.5469 13.8242 42.5469 11.8906C42.5469 9.96875 41.375 8.89062 39.3477 8.89062H36.9453ZM47.4692 23V10.4375H50.7739V12.6992H50.8442C51.2895 11.1055 52.3559 10.2383 53.8325 10.2383C54.2309 10.2383 54.5708 10.2969 54.8052 10.3672V13.3789C54.5239 13.2617 54.0552 13.1797 53.563 13.1797C51.8755 13.1797 50.8911 14.2109 50.8911 15.9805V23H47.4692ZM61.0752 23.2695C57.2783 23.2695 54.8525 20.832 54.8525 16.707C54.8525 12.6406 57.3134 10.168 61.0752 10.168C64.8369 10.168 67.2978 12.6289 67.2978 16.707C67.2978 20.8438 64.872 23.2695 61.0752 23.2695ZM61.0752 20.6562C62.7509 20.6562 63.8173 19.2383 63.8173 16.7188C63.8173 14.2227 62.7392 12.7812 61.0752 12.7812C59.4111 12.7812 58.3213 14.2227 58.3213 16.7188C58.3213 19.2383 59.3877 20.6562 61.0752 20.6562ZM69.5014 23V13.0156H67.7905V10.4961H69.5014V9.54688C69.5014 7.08594 70.6616 5.9375 73.6381 5.9375C74.2709 5.9375 74.9858 6.00781 75.3842 6.08984V8.35156C75.1381 8.30469 74.7983 8.28125 74.4584 8.28125C73.3334 8.28125 72.8413 8.77344 72.8413 9.66406V10.4961H75.3373V13.0156H72.9233V23H69.5014ZM76.7206 23V10.4375H80.1425V23H76.7206ZM78.4316 9.05469C77.4003 9.05469 76.6034 8.26953 76.6034 7.28516C76.6034 6.28906 77.4003 5.51562 78.4316 5.51562C79.4628 5.51562 80.2597 6.28906 80.2597 7.28516C80.2597 8.26953 79.4628 9.05469 78.4316 9.05469ZM82.8617 7.54297H86.2836V10.4375H88.6039V13.0156H86.2836V19.0273C86.2836 19.9883 86.7523 20.4453 87.7602 20.4453C88.0648 20.4453 88.3812 20.4219 88.5922 20.3867V22.9062C88.2406 22.9883 87.6547 23.0469 86.9633 23.0469C84.0102 23.0469 82.8617 22.0625 82.8617 19.6133V13.0156H81.0922V10.4375H82.8617V7.54297Z" fill="black"/>
<path d="M97.1708 23H93.6083L96.5731 9.11328H91.5106L92.1317 6.08984H105.819L105.198 9.11328H100.136L97.1708 23ZM105.843 15.3477H111.304C111.316 15.2656 111.327 15.1133 111.327 14.9961C111.327 13.7539 110.531 12.6875 108.949 12.6875C107.39 12.6875 106.242 13.8125 105.843 15.3477ZM107.941 23.2812C104.437 23.2812 102.374 21.0547 102.374 17.6094C102.374 13.3672 105.093 10.1211 109.066 10.1211C112.312 10.1211 114.468 12.2188 114.468 15.5117C114.468 16.1211 114.421 16.8711 114.292 17.4688H105.503C105.492 17.6094 105.48 17.7383 105.48 17.8672C105.48 19.5312 106.476 20.6797 108.07 20.6797C109.406 20.6797 110.378 20 110.765 18.9922H113.917C113.273 21.5 110.976 23.2812 107.941 23.2812ZM116.109 14.1523C116.109 11.7617 118.183 10.1328 121.324 10.1328C124.324 10.1328 126.422 11.7969 126.48 14.1992H123.433C123.351 13.2383 122.484 12.5586 121.277 12.5586C120.058 12.5586 119.308 13.0859 119.308 13.8477C119.308 14.5039 119.742 14.832 121.113 15.2773L122.367 15.6992C124.699 16.4727 125.625 17.4336 125.625 19.1094C125.625 21.582 123.422 23.2812 120.199 23.2812C116.871 23.2812 114.715 21.582 114.621 19.0859H117.832C117.949 20.1172 118.863 20.8438 120.305 20.8438C121.5 20.8438 122.297 20.2695 122.297 19.4609C122.297 18.8633 121.91 18.5703 120.562 18.1367L119.449 17.7617C117.129 17 116.109 15.8867 116.109 14.1523ZM131.543 23.1406C129.258 23.1406 127.782 22.2383 127.782 20.4219C127.782 20.1055 127.805 19.6602 127.91 19.168L129.188 13.2383H127.313L127.864 10.6133H129.739L130.371 7.55469H133.723L133.067 10.6133H135.645L135.106 13.2383H132.539L131.356 18.6641C131.297 18.9219 131.262 19.2266 131.262 19.4375C131.262 20.2227 131.789 20.5391 132.797 20.5391C133.231 20.5391 133.442 20.5273 133.641 20.4805L133.114 23C132.727 23.082 132.118 23.1406 131.543 23.1406Z" fill="#FD67D6"/>
</svg>
